Coordinates
version=1
nRows=21
nColumns=22
inDegrees=yes

Units are S.I. units (second, meters, Newtons, ...)
If the header above contains a line with 'inDegrees', this indicates whether rotational values are in degrees (yes) or radians (no).

endheader
time	pelvis_tilt	pelvis_list	pelvis_rotation	pelvis_tx	pelvis_ty	pelvis_tz	hip_flexion_r	hip_adduction_r	hip_rotation_r	knee_angle_r	ankle_angle_r	subtalar_angle_r	hip_flexion_l	hip_adduction_l	hip_rotation_l	knee_angle_l	ankle_angle_l	subtalar_angle_l	lumbar_extension	lumbar_bending	lumbar_rotation
      2.13000000	      6.54003299	     -5.45319286	     37.89992392	      0.06025374	      0.92837061	      0.54227845	     -4.16015365	      7.68728488	     -5.21484539	    -14.19329928	     13.74343923	      3.75044822	     29.11189437	     -5.49327916	     -1.31487279	    -44.49810385	      5.55363771	     -5.03612929	    -11.12633742	      5.22651433	      3.65726423
      2.14000000	      6.38803375	     -5.48446075	     38.27584969	      0.06598291	      0.92702736	      0.53673055	     -4.71101329	      7.63347579	     -5.51232732	    -13.91358218	     14.16971457	      3.79115820	     29.44278485	     -5.47167618	     -1.88266228	    -41.63967154	      5.55496695	     -5.14790640	    -10.91600499	      5.12517761	      4.07848271
      2.15000000	      6.26941053	     -5.51659512	     38.69792978	      0.07167377	      0.92561763	      0.53100608	     -5.33229406	      7.61104834	     -5.79428877	    -13.56495388	     14.56265183	      3.85155438	     29.67930748	     -5.44421517	     -2.42988143	    -38.71230530	      5.50079429	     -5.27147525	    -10.73329638	      5.04809583	      4.40824060
      2.16000000	      6.10996535	     -5.59599703	     39.14170315	      0.07732032	      0.92398824	      0.52518317	     -5.86360121	      7.59749684	     -6.13458232	    -13.26720462	     14.94822432	      3.91020960	     29.93225481	     -5.41064618	     -2.98653436	    -35.76052892	      5.37231966	     -5.32183375	    -10.47619806	      4.97313782	      4.69030001
      2.17000000	      5.99972364	     -5.66710758	     39.61850048	      0.08297959	      0.92232889	      0.51918845	     -6.48767596	      7.61916123	     -6.43850339	    -12.89920657	     15.29867512	      4.00777826	     30.07891766	     -5.38437954	     -3.56729079	    -32.80752631	      5.26950057	     -5.35772487	    -10.26291933	      4.92157507	      4.89633772
      2.18000000	      5.86307395	     -5.77647373	     40.10700592	      0.08865865	      0.92049310	      0.51308487	     -7.04954983	      7.65261775	     -6.79002866	    -12.57037690	     15.63633143	      4.09920969	     30.23829048	     -5.36495261	     -4.22759799	    -29.91885724	      5.13409750	     -5.35562745	     -9.98798847	      4.86965704	      5.06209968
      2.19000000	      5.75531431	     -5.88288798	     40.59643832	      0.09440545	      0.91860656	      0.50684231	     -7.66055717	      7.70638260	     -7.10618548	    -12.21791294	     15.94113958	      4.22241348	     30.33561404	     -5.36217033	     -5.00338733	    -27.14351934	      5.06808378	     -5.32074858	     -9.72958455	      4.82214172	      5.18644679
      2.20000000	      5.65481013	     -5.99573955	     41.06432036	      0.10022590	      0.91663747	      0.50048184	     -8.27477415	      7.76623975	     -7.39636249	    -11.88189937	     16.22503947	      4.36901328	     30.41626744	     -5.37649921	     -5.93392927	    -24.56016962	      5.07050914	     -5.25838633	     -9.46256906	      4.77065564	      5.29869099
      2.21000000	      5.55478494	     -6.11281584	     41.49366753	      0.10613596	      0.91459049	      0.49401574	     -8.87644177	      7.82154339	     -7.64206970	    -11.58426741	     16.49045049	      4.53494529	     30.50236797	     -5.40719703	     -7.03050315	    -22.24738658	      5.15860356	     -5.18149483	     -9.18169241	      4.70500734	      5.40876202
      2.22000000	      5.45863002	     -6.22909417	     41.87083899	      0.11212776	      0.91249199	      0.48745376	     -9.45716404	      7.86342559	     -7.83673152	    -11.35176712	     16.74338848	      4.72097276	     30.61020905	     -5.45989295	     -8.27795335	    -20.28954993	      5.32242843	     -5.11149024	     -8.90233258	      4.62807503	      5.53125390
      2.23000000	      5.35258352	     -6.35120333	     42.18707974	      0.11823926	      0.91034204	      0.48080234	     -9.99328993	      7.88629403	     -7.97393600	    -11.20178578	     16.97397687	      4.91125658	     30.76978269	     -5.53997567	     -9.63612565	    -18.75482659	      5.55048560	     -5.07760085	     -8.59744134	      4.52810525	      5.67195921
      2.24000000	      5.24780633	     -6.46799493	     42.42942210	      0.12445090	      0.90819876	      0.47409045	    -10.48379210	      7.88264322	     -8.04303774	    -11.16216947	     17.18808874	      5.10606837	     30.97735746	     -5.66647497	    -11.07064017	    -17.69971118	      5.80545863	     -5.11072036	     -8.30145875	      4.40805863	      5.86214511
      2.25000000	      5.15019644	     -6.57896307	     42.60096246	      0.13079920	      0.90609959	      0.46730250	    -10.92259055	      7.85593487	     -8.04494150	    -11.25885355	     17.35419758	      5.28682013	     31.23535781	     -5.86356996	    -12.56476134	    -17.16558952	      6.07531727	     -5.22853872	     -8.01108952	      4.27070988	      6.06813517
      2.26000000	      5.04655929	     -6.66045749	     42.69368785	      0.13735468	      0.90410584	      0.46040910	    -11.36266521	      7.78463226	     -7.93725204	    -11.40794928	     17.49586880	      5.52076966	     31.51485410	     -6.12211514	    -14.09821034	    -17.13552096	      6.29496610	     -5.56151124	     -7.72174193	      4.07622883	      6.36548871
      2.27000000	      4.96620639	     -6.72918036	     42.73523582	      0.14404331	      0.90223831	      0.45340649	    -11.75688026	      7.69681892	     -7.78730592	    -11.71201187	     17.54019228	      5.76626185	     31.82604707	     -6.48227409	    -15.67309757	    -17.62422991	      6.47645415	     -6.22282313	     -7.45596405	      3.87625391	      6.65050488
      2.28000000	      4.88524646	     -6.77993301	     42.71683306	      0.15094739	      0.90051547	      0.44626731	    -12.13578260	      7.57949864	     -7.55380830	    -12.08966599	     17.52404347	      5.94412230	     32.15407205	     -6.93665289	    -17.28850835	    -18.56794003	      6.56974489	     -6.96140965	     -7.18158721	      3.63814884	      6.99634851
      2.29000000	      4.79948759	     -6.79050217	     42.65917890	      0.15803373	      0.89899510	      0.43894267	    -12.52347542	      7.41733038	     -7.22828782	    -12.51738817	     17.42673410	      6.10554087	     32.45850159	     -7.44944977	    -18.93161726	    -19.86591473	      6.53745419	     -7.83989773	     -6.90809284	      3.34558463	      7.35202873
      2.30000000	      4.71697524	     -6.74831638	     42.59072154	      0.16520296	      0.89772540	      0.43139383	    -12.90448780	      7.20102605	     -6.91080273	    -13.04321097	     17.20414243	      6.24637094	     32.70655298	     -7.97449037	    -20.50355172	    -21.41050599	      6.39341580	     -8.89693650	     -6.66266828	      3.00555902	      7.70116433
      2.31000000	      4.59400105	     -6.65201993	     42.53336471	      0.17244283	      0.89670454	      0.42358526	    -13.28198349	      6.91305460	     -6.56276408	    -13.59628185	     16.88847494	      6.36775490	     32.90151088	     -8.42983835	    -21.90664015	    -23.06379450	      6.12871499	     -9.95585442	     -6.39867302	      2.58038080	      8.01111642
      2.32000000	      4.41335225	     -6.50068766	     42.53000661	      0.17962936	      0.89594945	      0.41547402	    -13.62733791	      6.54503363	     -6.26734767	    -14.19430965	     16.44886759	      6.47991561	     33.04823248	     -8.71950187	    -22.97585907	    -24.70231920	      5.75139091	    -10.95396679	     -6.10951387	      2.06340132	      8.26164177
      2.33000000	      4.14670424	     -6.29564243	     42.61399351	      0.18665236	      0.89544438	      0.40699659	    -13.91178516	      6.08294731	     -6.04535500	    -14.84288446	     15.88989905	      6.60539134	     33.16611569	     -8.74898771	    -23.60240314	    -26.22943260	      5.28902265	    -11.79724804	     -5.77338040	      1.45070706	      8.38739030
